<?xml version="1.0" encoding="UTF-8"?>
<svg id="Layer_2" data-name="Layer 2" xmlns="http://www.w3.org/2000/svg" viewBox="0 0 283.37 713.74">
  <g id="mirror">
    <g>
      <polygon points="17.5 648.18 265.87 692.82 265.87 18.46 17.5 31.79 17.5 648.18" fill="#d7e9ff" stroke="#d8c483" stroke-miterlimit="10" stroke-width="35"/>
      <path d="M172.02,60.74c5.71-3.73,11.44-7.44,17.31-10.94,5.04-3-45.95,41.89-53.89,46.86-21.21,13.29-43.63,25.19-68.22,31.91-5.27,1.44-9.83-5.32-4.81-8.52,21.76-13.87,44.45-28.41,60.74-48.11-21.73,12.17-44.14,23.24-67.14,33.13-3.87,1.67-8.61-3.03-6.46-6.64,5.05-8.45,10.11-16.9,15.17-25.35-16.33,4.8,1.85-.94-14.34,4.27-6.17,1.99-9.84-7.11-3.67-9.1,20.36-6.55,6.39-2.04,26.97-7.94,3.84-1.1,8.8,2.72,6.46,6.64-4.53,7.57-9.05,15.13-13.58,22.7,24.06-10.99,47.4-23.28,69.94-36.86,4.03-2.43,10.02,1.56,7.6,6.06-9.46,17.6-23.43,31.67-39.15,43.99,11.29-5.88,22.18-12.51,32.84-19.42,11.49-7.45,22.77-15.19,34.24-22.68Z" fill="#fff" opacity=".84"/>
      <path d="M113.59,614.58c-5.54,2.77-11.1,5.53-16.74,8.07-4.85,2.18-10.89,3.91-14.74-.96-1.94-2.45-1.25-5.38,1.28-7.03,45.92-30.02,93.34-57.7,142.06-82.91,5.16-2.67-64.33,45.06-97.52,65.39,7.56-3.88,15.13-7.73,22.79-11.39,20.5-9.78,41.87-18.13,64.44-21.46,4.84-.71,7.92,6.05,3.06,8.41-21.06,10.24-43.04,21-60.08,37.25,20.8-8.69,42.05-16.28,63.66-22.72,3.64-1.08,7.17,3.8,4.77,6.86-5.61,7.2-11.22,14.39-16.83,21.59,15.04-2.52-1.76.65,13.21-2.26,5.7-1.11,7.69,7.69,1.98,8.81-18.82,3.67-5.9,1.13-24.83,4.18-3.53.57-7.38-3.53-4.77-6.86,5.03-6.44,10.05-12.89,15.08-19.33-22.69,7.33-44.93,15.93-66.64,25.82-3.88,1.77-8.61-2.6-5.86-6.47,10.74-15.12,24.98-26.45,40.51-35.97-10.75,4.1-21.24,8.95-31.58,14.08-11.14,5.53-22.14,11.34-33.26,16.91Z" fill="#fff" opacity=".92"/>
    </g>
  </g>
</svg>