<?xml version="1.0" encoding="UTF-8"?>
<svg id="Layer_2" data-name="Layer 2" xmlns="http://www.w3.org/2000/svg" viewBox="0 0 197.63 519.16">
  <g id="Layer_1-2" data-name="Layer 1">
    <g>
      <path d="M196.79,254.02l-.11-.27c-4.07-7.74-9.57-15.98-15.7-24.42-.12-.16-.2-.35-.23-.55-3.92-23.52-9.7-45.05-17.64-64.27l-.07-.21-13.16-60.61c-2.47-11.67-7.78-16.26-14.81-16.51l-.16-.02c-13.58-2.23-23.46-8.23-26.78-20.93-.22-.84-1.18-1.23-1.93-.8-5.82,3.37-12.13,3.31-19.18-.56-.56-.31-1.26-.19-1.66.3l-15.58,18.8c-.17.21-.41.36-.68.43-8.12,2.12-15.19,6.34-17,8.14-6.28,6.23-12.3,43.42-18.54,75.92l-.12.34c-6.93,13.51-12.19,36.04-16.81,62.07-.05.26-.15.51-.35.68-11.18,9.94-13.86,19.21-13.9,19.29-4.28,11.44-2.02,12.07.93,8.16,2.34-3.1,1.58-.52,1.22.69-.75,2.51-2.28,5.9-2.21,8.68,0,1.08,1.94,1.24,2.29-.53.32-1.62,1.4-3.92,1.73-5.56.19-.97,1.29-.64,1.1.32-.34,1.73-.92,3.41-1.37,5.11-.26,1-.58,1.98-1.07,2.87-.4.73-.3,1.29.08,2.03.37.71,1.97.53,2.29.01.62-1.03.58-1.44.98-2.58.8-2.26.81-4.68,1.5-6.96.29-.95,1.77-.54,1.48.41-.69,2.28-.7,4.7-1.5,6.96-.41,1.16-.83,2.4-1.43,3.48-.17.31-.36.61-.56.91-.53.81-.15,1.91.76,2.23.01,0,.03,0,.04.01,1.12.38,2.31-.31,2.56-1.47.71-3.21,2.23-6.25,2.93-9.47.21-.97,1.7-.56,1.48.41-.58,2.63-1.74,5.15-2.51,7.74-.26.89.78,1.6,1.5,1.01s1.51-1.4,2.29-2.34l.15-.21c6.66-11.44,10.27-24.9,10.05-40.88,0-.19.04-.39.12-.56,10.71-23.18,18.85-44.78,22.14-63.43l.02-.08c3.61-14.67,7.35-27.86,11.31-38.31.44-1.17,2.99-6.09,3.36-4.89,5.57,18.37,6.22,43.97-1.29,69.56l-.05.13c-9.85,24.21-16.08,48.1-9.52,70.86l.04.18c4.01,31.17,8.15,60.33,12.64,83.73l.02.09c2.67,9.92,4.53,19.62,2.74,28.35v.07c-3.02,21.64,1.66,54.38,9.43,91.57,1.21,5.47,1.31,11.1.06,16.92-.04.18-.12.36-.23.51-4.38,5.92-7.57,12.77-9.22,20.67l-.03.25c-.8,16.38,27.03,14.85,26.48-.13.43-9.41-.51-19.44-2.44-29.91l-.02-.23c.06-3.28-.65-7.69-1.61-12.44l-.03-.28c.14-15.15.64-28.59,1.64-39.58.78-13.51.34-32.4-.41-52.64v-.07c.27-15.02.55-29.95.82-44.77l.02-.2c2.68-15.33,4.84-32.78,6.4-52.59-1.07,21.7,3.42,40.93,5.64,71.21v.09s.2,30.38.2,30.38v.16c-2.76,22.37-1.77,53.55,1.36,89.77v.32c-1.08,6.49-1.92,12.89-2.52,19.17-1.27,10.66-2.14,20.75-.71,27.51.07.32.26.61.52.8,7.2,5.28,14.94,6.23,23.58,0,.27-.2.47-.49.53-.82.63-3.23.51-7.66,0-12.73-.34-3.13-2.2-6.51-5.02-10.03-4.1-3.92-4.64-9.5-4.15-15.55v-.09c2.98-21.55,6.31-44.45,9.83-68.04v-.17c.31-11.05.08-22.84-.89-35.29l.02-.34,1.06-5.66,2.24-13.03,13.83-87.26v-.12c1.56-22.05,1.31-44-5.94-62.07l-.07-.14c-6.3-11.4-8.29-25.77-8.47-41.39.61-19.01,2.77-31.63,5.32-42.64-.49,2.38-.53,4.71.3,6.94,5.37,16.71,10.29,32.9,12.88,46.41,2.65,14.38,12.08,38.51,21.63,62.8.06.16.09.32.09.49-.14,8.94.89,18.15,4.53,27.94,1.04,2.52,2.11,4.67,3.18,6.46.78,1.3,2.79.45,2.4-1.01-.59-2.22-.76-3.19-1.22-5.44-.2-.97,1.29-1.38,1.48-.41,1.03,5.1,1.67,9,4.57,13.4.21.31.57.5.94.5,0,0,.01,0,.02,0,1.03,0,1.63-1.2,1.1-2.09-.98-1.61-1.69-3.63-2.33-5.41-1.11-3.08-1.2-6.02-1.74-9.21-.16-.97,1.32-1.38,1.48-.41.52,3.09.71,5.69,1.7,8.7.7,2.12,1.49,6.58,3.64,6.62.22,0,.44-.07.62-.2,1.38-1.03.12-2.77-.18-3.26-.44-.7-.88-2.15-1.1-2.82-.45-1.33-.58-2.69-.87-4.06-.46-2.17-.47-2.77-1.42-4.78-.42-.89.9-1.67,1.33-.78.84,1.77.83,2.08,1.31,3.98.35,1.39.47,2.83.83,4.21.26.97.58,1.95,1.11,2.81,2.24,1.26,1.65-3.21-.23-13.01-.16-.86,1.7-.67,1.93.67.76,4.46,5.78,7.66,2.97-3.71Z" fill="#ffcced"/>
      <path d="M78.29,85.98c4.7,5.87,10.36,14,18.15,16.14,7.44-2.12,13.78-10.34,19.05-17.76,32.28,1.16,30.38,8.91,30.38,8.91-2.75-8.3-14.45,3.96-11.54,27.32.18,1.41.18,1.9.91.91-3.17,14.38-4.55,25.7-4.66,43.6.38,13.98,3,26.65,8.42,37.68,2.46,3.41,3.33,7.03,3.43,10.76l-86.87.56c11.55-32.01,15.82-61.97,6.44-88.08-.09-6.64,1.25-12.38.65-16.79-4.18-30.31-12.56-13.72-10.92-16.28,3.29-5.49,15.06-10.1,26.55-6.97Z" fill="#963c7a"/>
      <g opacity=".75">
        <path d="M85.19,67.32c1.49,2.55,1.21,5.95.37,8.67-.9,2.89-2.64,5.43-5.01,7.31-.63.5-.53,1.59,0,2.12.63.63,1.48.51,2.12,0,2.82-2.24,4.84-5.43,5.85-8.88s1.1-7.58-.75-10.74c-.97-1.67-3.57-.16-2.59,1.51h0Z" fill="#ba83ab"/>
      </g>
      <g opacity=".75">
        <path d="M105.39,63.65c-1.2,1.1-3,2.03-4.51,2.62s-3.23.66-4.82.4c-3.25-.52-6.45-2.15-8.57-4.7-1.23-1.49-3.35.65-2.12,2.12,2.55,3.07,6.59,5.03,10.51,5.56,1.98.27,4.04.18,5.92-.54,1.98-.76,4.15-1.91,5.71-3.35,1.43-1.31-.7-3.43-2.12-2.12h0Z" fill="#ba83ab"/>
      </g>
      <path d="M73.66,38.25c6.99-12.34,46.74-3.68,46.62-.92-.58-5.09-7.03,23.41-12.56,27.12-1.44,10.3-.27,20.12,10.19,28.23,3.11,1.59,6.12,2.58,8.73,1.22-3.67-1.9-6.47-4.11-6.02-7.47,4.49,2.22,10.96,1.35,15.5-1-9.31-4.81-14.78-14.92-12.52-26.44C132.7,12.6,114.27,0,95.12,0c-15.98.55-26.42,11.57-26.49,32.64,3.18,24.6,4.42,46.08-9.47,52.26,4.48.92,11.67,1.34,16.47-.67-1.53,3.31-4.1,5.75-8.01,6.86,5.49.64,10.88-.28,15.88-7.16,3.24-7.1,5.09-13.67,3.37-18.84-4.98-3.83-13.21-26.84-13.21-26.84Z" fill="#603030"/>
      <path d="M75.7,44.99c3.32,16.9,9.94,21.16,21.1,23.15,10.51-.13,17.58-8.46,22.12-22.84.11,4.25,3.13,2.94,3.89.28.12-.41,1.3-6.15.56-11.15-.51-2-3.6-2.8-4.26-.12,0,0-12.21-3.45-26.8-18.24-9.75,18.26-16.07,19-17.59,19.8-1.08-5.82-4.67-1.47-3.74,3.32.5,5.52.76,6.95,3.22,9.1.25.22.65.13.97.11.64-.58.68-1.87.53-3.4Z" fill="#ffcced"/>
      <g>
        <ellipse cx="87.38" cy="34.69" rx="4.19" ry="3.94" fill="#fff"/>
        <ellipse cx="87.38" cy="35.26" rx="2.43" ry="2.26" fill="#355093"/>
        <ellipse cx="87.38" cy="34.82" rx="1.21" ry="1.26"/>
        <ellipse cx="86.78" cy="34.39" rx=".26" ry=".27" fill="#fff"/>
        <path d="M82.35,34.91c.64-6.35,9.06-6.92,10.06,0-3.68-1.61-6.97-1.3-10.06,0Z" fill="#c46ec4"/>
        <path d="M82.7,34.75c.15-.44.37-.87.63-1.3.45-.76,1.01-1.49,1.72-2.01.8-.59,1.84-.95,2.83-.75,1.05.22,1.93.95,2.63,1.73.6.67,1.2,1.48,1.51,2.31l.36-.28c-.42-.27-.81-.7-1.21-1.02-.64-.52-1.33-.97-2.09-1.28-.86-.35-1.8-.46-2.71-.29-.83.15-1.62.53-2.31,1.01-.55.38-1.02.87-1.57,1.24-.26.18-.01.6.25.42.45-.31.83-.7,1.26-1.02.63-.48,1.32-.88,2.09-1.09,1.72-.47,3.36.25,4.69,1.32.45.36.86.82,1.35,1.13.17.11.44-.08.36-.28-.3-.81-.82-1.55-1.36-2.21-.72-.88-1.62-1.7-2.72-2.06-2.15-.72-4.16.8-5.28,2.52-.36.55-.69,1.16-.9,1.79-.1.3.37.43.47.13h0Z" fill="#bf5ca1"/>
      </g>
      <path d="M83.08,34.62c-.94.83-1.95-.03-2.99-1.62,1.07.81,2.08,1.41,2.99,1.62Z"/>
      <path d="M84.49,34.15c-1.11.57-1.89-.52-2.52-2.32.8,1.41,1.69,1.89,2.52,2.32Z"/>
      <path d="M86.34,33.88c-1.13.52-1.86-.6-2.43-2.43.92,1.82,1.62,1.96,2.43,2.43Z"/>
      <g>
        <g>
          <ellipse cx="107.06" cy="34.8" rx="4.19" ry="3.94" fill="#fff"/>
          <ellipse cx="107.06" cy="35.37" rx="2.43" ry="2.26" fill="#355093"/>
          <ellipse cx="107.06" cy="34.93" rx="1.21" ry="1.26"/>
          <ellipse cx="106.47" cy="34.5" rx=".26" ry=".27" fill="#fff"/>
          <path d="M102.03,35.02c.64-6.35,9.06-6.92,10.06,0-3.68-1.61-6.97-1.3-10.06,0Z" fill="#c46ec4"/>
          <path d="M102.38,34.86c.15-.44.37-.87.63-1.3.45-.76,1.01-1.49,1.72-2.01.8-.59,1.84-.95,2.83-.75,1.05.22,1.93.95,2.63,1.73.6.67,1.2,1.48,1.51,2.31l.36-.28c-.42-.27-.81-.7-1.21-1.02-.64-.52-1.33-.97-2.09-1.28-.86-.35-1.8-.46-2.71-.29-.83.15-1.62.53-2.31,1.01-.55.38-1.02.87-1.57,1.24-.26.18-.01.6.25.42.45-.31.83-.7,1.26-1.02.63-.48,1.32-.88,2.09-1.09,1.72-.47,3.36.25,4.69,1.32.45.36.86.82,1.35,1.13.17.11.44-.08.36-.28-.3-.81-.82-1.55-1.36-2.21-.72-.88-1.62-1.7-2.72-2.06-2.15-.72-4.16.8-5.28,2.52-.36.55-.69,1.16-.9,1.79-.1.3.37.43.47.13h0Z" fill="#bf5ca1"/>
        </g>
        <path d="M111.46,34.82c1.02.72,1.94-.24,2.81-1.93-.99.92-1.93,1.62-2.81,1.93Z"/>
        <path d="M109.95,34.32c1.09.6,1.9-.45,2.59-2.23-.84,1.39-1.75,1.83-2.59,2.23Z"/>
        <path d="M108.07,33.99c1.11.56,1.88-.53,2.5-2.34-.98,1.79-1.68,1.9-2.5,2.34Z"/>
      </g>
      <g opacity=".19">
        <path d="M97.82,47.88c-.85.16-1.73.19-2.59.08-.4-.05-.75-.11-1.15-.05-.35.06-.49.11-.84.11-.25,0-.5.23-.48.48.04.56.59.69,1.05.83.38.12.77.21,1.17.27.77.12,1.55.13,2.33.09.47-.03.96-.04,1.43-.15.43-.1.84-.31,1.2-.56.32-.22.66-.47.93-.75.16-.17.22-.43.27-.66.07-.3.12-.6.17-.91.02-.12.04-.25.06-.37,0-.04.02-.08.02-.12.01-.07.06-.13-.02.03l-.17.17h0c-.16,0-.32,0-.49,0h0c-.06-.06-.12-.11-.17-.17-.12-.27-.06-.27-.06-.11,0,.07-.02.14-.02.21,0,.04,0,.02,0-.05,0,.02,0,.04,0,.06,0,.03-.01.07-.02.1,0,.03-.02.06-.02.09-.02.05,0,.03.03-.06-.09.17.07.11.49-.18l.21.12s-.01,0,.02.03c-.04-.05-.08-.1-.12-.15-.06-.06-.12-.13-.18-.18-.11-.11-.23-.2-.33-.31-.13-.13-.25-.26-.36-.4-.09-.11-.17-.25-.27-.36-.32-.35-.8-.25-1.07.1-.21.26-.37.55-.5.85-.23.52-.4,1.13-.78,1.57s-.96.54-1.53.6c-.26.03-.48.2-.48.48s.22.45.48.48c.72.08,1.43.02,2.15-.07.63-.09,1.29-.21,1.81-.61s.92-1.06.72-1.74c-.1-.35-.35-.75-.77-.75-.36,0-.62.31-.82.57-.16.22-.28.47-.42.71-.03.06-.07.12-.11.17-.01.02-.03.04-.04.06-.05.07.04-.04-.01.02-.1.12-.17.18-.26.23-.54.31-.05,1.15.49.83.36-.21.61-.54.81-.9.09-.16.17-.32.27-.47.05-.08.07-.11.1-.15s.07-.07.1-.11c.02-.03.05-.02.02-.02h-.26l-.08-.06s-.02-.02,0,.02c0-.03.06.17.04.1.02.06.02.12.02.18-.02.1-.09.24-.15.32-.23.28-.57.42-.92.51-.86.22-1.8.28-2.68.18v.97c.49-.05.97-.11,1.43-.31.43-.19.76-.5,1.02-.88s.41-.78.58-1.18c.07-.18.15-.36.23-.53.05-.1.11-.21.17-.31.03-.04.07-.09.09-.13.06-.12.09.02-.09,0l-.24-.07s-.1-.14,0,0c.03.05.07.09.1.13.08.1.16.21.24.31.15.18.32.34.49.5.15.14.27.29.41.43.2.2.53.19.72,0s.22-.5.25-.76c.03-.27.06-.61-.23-.76-.14-.07-.35-.1-.49,0-.2.15-.24.32-.28.55s-.07.45-.11.67-.08.47-.14.69c-.01.05-.03.09-.04.14,0,0-.02.06-.02.06,0,0,.06-.11.02-.05-.05.08.07-.04.03-.03-.08.02-.18.16-.25.21-.28.24-.58.46-.91.63s-.68.24-1.05.26c-.74.05-1.49.1-2.23.04-.38-.03-.7-.08-1.09-.17-.2-.05-.39-.1-.58-.16-.11-.03-.22-.07-.32-.11-.02,0-.17-.05-.17-.06,0,0,.08.06.09.06l.07.24v-.04c-.16.16-.32.32-.49.48.35,0,.68-.06,1.02-.13.01,0,.12-.02.06-.01-.06,0,.03,0,.04,0,.08,0,.17,0,.25,0,.21.01.43.06.64.09.94.12,1.9.07,2.83-.11.26-.05.4-.36.34-.59-.07-.27-.34-.39-.59-.34h0Z" fill="#c66fb6"/>
      </g>
      <g id="nose">
        <path d="M99.6,33.29c-1.9,3.23-1.99,7.42-.23,10.72l.49.82c.07.12.17.2.29.27.68.38,1.25,1.06,1.34,1.89.09.9-.61,1.88-1.42,1.76-.49-.08-.97-.51-1.42-.3-.15.07-.27.2-.4.33-.25.27-.53.52-.86.65s-.72.12-1.01-.11c-.26-.21-.39-.58-.67-.76-.45-.28-.99.06-1.44.34s-1.1.48-1.42.03c-.17-.24-.17-.57-.13-.87.1-.71.36-1.4.77-1.96" fill="none" stroke="#ba83ab" stroke-miterlimit="10" stroke-width=".49"/>
      </g>
      <path d="M90.83,56.55c3.96,4.65,7.8,4.89,13.02,0,.92-.32-13.47.09-13.02,0Z" fill="#cf7cd8"/>
      <path d="M93.68,55.38c.51-.27,1.11-.39,1.69-.27.66.14,1.24.45,1.75.97.5-.46,1.04-.84,1.67-1.07.55-.2,1.18-.11,1.67.18,2.59,1.52,4.41.5,6.01.23-4.89,2.61-15.37,1.91-18.58.15,0,0,3.08,1.23,5.79-.19Z" fill="#ab30b5"/>
      <g opacity=".19">
        <path d="M99.58,42.5c-.25-2.54-1.21-5.57.48-7.84.16-.21.03-.54-.17-.66-.25-.14-.5-.04-.66.17-1.82,2.43-.88,5.59-.62,8.32.03.26.2.48.48.48.24,0,.51-.22.48-.48h0Z" fill="#c66fb6"/>
      </g>
      <path d="M120.33,36.64c.21,2.24-.14,4.49-.39,6.71-.07.59.56,1.15,1.12,1.12.67-.03,1.05-.5,1.12-1.12.25-2.22.59-4.47.39-6.71-.05-.58-.48-1.15-1.12-1.12-.56.03-1.18.5-1.12,1.12h0Z" fill="#e5b3d6"/>
      <path d="M71.96,37.29c-.28,2.15.21,4.34.54,6.46.1.63.92,1.04,1.5.85.69-.22.96-.82.85-1.5-.05-.34-.11-.68-.16-1.03-.04-.24-.08-.49-.11-.73-.02-.16-.05-.32-.07-.47-.01-.08-.02-.16-.03-.24-.02-.13-.02-.16-.01-.07.01.08,0,.06,0-.07,0-.08-.02-.16-.03-.24-.02-.14-.03-.28-.04-.41-.03-.28-.05-.55-.06-.83-.02-.57,0-1.15.07-1.72.08-.63-.62-1.24-1.22-1.22-.73.03-1.13.54-1.22,1.22h0Z" fill="#e5b3d6"/>
      <path d="M55.57,214.1l86.87-.56c17.63,47.19-11.11,140.01-11.11,140.01l-2.6,17.93c6.5,42.72-.15,68.69-8.59,93.46h-13.49c-2.38-37.31-4.61-63.29-1.35-88.55-1.24-34.52-5.9-68.25-6-95.56-2.73,20.34-4.91,40.98-6.54,61.94l.27,32.81c1.04,29.45.33,59.13-2.03,89.03h-13.72c-8.56-30.74-14.86-54.84-8.69-87.1.93-6.66.45-13.84-1.01-21.38,0,0-34.75-107.63-12-142.04Z" fill="#858793"/>
      <polygon points="54.33 216.15 143.39 216.15 142.44 213.54 55.57 214.1 54.33 216.15" fill="#6d235a"/>
      <path d="M145.87,93.27c-.22-1.59-.69-2.38-1.37-2.95s-1.62-.71-2.41-.33c-7.64,3.64-11.44,15.49-8.18,32.29.64,1.28,1.1.46,1.33-.78-.71.97-.75.49-.89-.91-2.58-24.52,8.31-34.77,11.52-27.32Z" fill="#6d235a"/>
      <path d="M51.74,92.95c1.3-1.57,3.69-2.32,4.54-2.05,4.62,1.51,8.11,8.94,6.93,29.53-.64,1.39-.97,6.95-1.2,5.59.71,1.06-.07-2.44.1-3.96,2.39-22.4-5.36-37.03-10.37-29.11Z" fill="#6d235a"/>
      <path d="M100.87,29.62v-1.08c0-.23.37-.73.62-.76,2.3-.53,4.66-.84,7.13-.7.46-.02,1.27-.21,1.67,0,1.88.97,4.15,2.11,4.96,3.31-1.69-.91-3.73-1.51-5.35-1.85-.2-.04-1.16-.3-1.36-.27l-7.68,1.36Z" fill="#603030"/>
      <path d="M92.7,29.62v-1.03c0-.23-.27-.77-.52-.8-3.52-.69-6.32-1.09-7.23-.71-.46-.02-1.27-.21-1.67,0-1.88.97-4.15,2.11-4.96,3.31,1.69-.91,3.73-1.51,5.35-1.85.2-.04,1.09-.21,1.29-.19l7.75,1.28Z" fill="#603030"/>
    </g>
  </g>
</svg>