<?xml version="1.0" encoding="UTF-8"?>
<svg id="Layer_2" data-name="Layer 2" xmlns="http://www.w3.org/2000/svg" viewBox="0 0 146.64 233.01">
  <g id="side_table" data-name="side table">
    <g id="lamp">
      <g>
        <path d="M61.93,181.82c.08,3.48.53,7.86-.68,13.39-1.42,8.05-11.84,16.69-18.91,20.06-3.41,1.62-4.11,6.18-1.34,8.74,11.92,11.04,43.19,10.61,57.06,5.71,2.67-.94,2.83-4.61.3-5.86-6.08-3-15.22-10.19-23.08-29.41-.66-5.06,0-9.46,1.56-13.39,2.99-8.79,6.14-15.85,9.48-20.73,8.11-.53,13.9-9.53.41-16.53-6.06-1.7-9.36-4.72-9.34-9.34-.08-3.68-.23-5.67,4.18-8.29,3.09-2.35,3.6-4.72-.21-7.1-1.69.26-2.92-.23-3.15-2.31v-9.52s.13-5.8.13-5.8l-19.94,1.1.1,14.63c-.03,1.76-.65,3.13-2.61,2.64-3.01,2.13-2.94,5.74.59,7,5.09,1.2,4.94,4.19,4.23,8.44-2.61,4.01-5.05,6.9-9.57,8.71-11,2.87-11.87,12.06-1.47,14.94,5.05,8.79,12.25,19.41,12.26,22.9Z" fill="#665a54"/>
        <polygon points="140.64 13.47 139.39 99.33 5.11 95.83 5.11 13.47 140.64 13.47" fill="#debf9a"/>
        <path d="M5.32,13.55c46.54.49,91.87.71,135.5.53,8.21,1.94,8.21-11.43-3.04-5.7l-1.31.11c.55-8.62-9.17-6.88-12.55-1.2l-1.42.55-1.31-.22c.33-9.82-13.48-5.24-12.28-.16l-1.53.27c-1.47-11.24-13.15-6.17-13.64-1.26l-1.86.44c-2.29-9.82-13.15-7.86-14.24-2.29-5.57-6.98-12.93-2.78-11.35,2.56l-.93.6c-4.31-10.37-13.1-6.17-11.3,1.04-.85.6-2.21.69-2.7.2-2.22-7.2-10.23-7.01-12.37-.06-1.29.51-2.24.03-3.05-.77C34.45,0,24.94,1.02,24.99,8.75c-.71.7-1.85.71-2.5.27-.3-6.96-9.59-9.76-10.07.22-1.18.19-2.11.14-2.42-.51-.88-6.23-7.15-4.33-5.95.08C-.94,7.73-.36,14.28,5.32,13.55Z" fill="#bf9d77"/>
        <path d="M4.77,94.49c46.52,1.27,91.84,2.78,135.42,4.61,8.27-1.63,7.77,11.73-3.25,5.58l-1.3-.16c.22,8.64-9.42,6.52-12.59.72l-1.4-.6-1.32.17c-.05,9.83-13.67,4.72-12.28-.3l-1.52-.33c-1.9,11.18-13.38,5.66-13.68.74l-1.84-.51c-2.66,9.73-13.44,7.35-14.32,1.75-5.83,6.77-13.03,2.29-11.24-2.99l-.9-.64c-4.7,10.2-13.32,5.66-11.25-1.46-.83-.63-2.18-.77-2.69-.31-2.49,7.11-10.49,6.62-12.36-.41-1.27-.56-2.23-.12-3.08.66-1.81,8.13-11.28,6.75-10.93-.97-.68-.73-1.83-.78-2.48-.36-.57,6.94-9.95,9.39-10.05-.6-1.18-.24-2.11-.22-2.44.42-1.12,6.19-7.31,4.06-5.94-.3-5.03.88-4.2-5.64,1.44-4.7Z" fill="#bf9d77"/>
      </g>
    </g>
  </g>
</svg>