<?xml version="1.0" encoding="UTF-8"?>
<svg id="Layer_2" data-name="Layer 2" xmlns="http://www.w3.org/2000/svg" viewBox="0 0 377.99 343.99">
  <g id="Lungs">
    <path d="M213.61,135.23c0-77.69,33.2-88.69,87.42-43.04,64.43,69.81,84.07,146.31,74.78,227.14-1.03,8.94-7.33,16.59-16.26,19.78-28.84,10.29-80.67,3.87-112.76-15.16-10.72-6.36-18.97-15.81-23.15-27.08-11.56-31.17-10.01-80.16-9.89-123.17l-.13-38.47Z" fill="#e55c5c"/>
    <path d="M164.38,135.23c0-77.69-33.2-88.69-87.42-43.04C12.53,162-7.11,238.5,2.18,319.33c1.03,8.94,7.33,16.59,16.26,19.78,28.84,10.29,80.67,3.87,112.76-15.16,10.72-6.36,18.97-15.81,23.15-27.08,11.56-31.17,10.01-80.16,9.89-123.17l.13-38.47Z" fill="#e55c5c"/>
    <path d="M175.19,0c.14,127.87,15.6,132.46-59.3,175.86v26.74c20.79-8.45,57.91-33.98,72.19-54.75,13.02,17.6,54.18,45.47,77.63,54.75l-6.3-26.74c-69.34-43.8-59.27-47.99-59.13-175.86" fill="#4295b2"/>
  </g>
</svg>