<svg width="170" height="158" viewBox="0 0 170 158" fill="none" xmlns="http://www.w3.org/2000/svg">
<g clip-path="url(#clip0_5259_91)">
<path d="M84.2148 33.091C100.493 -5.27845 150.489 -4.11574 160.954 34.2537C167.93 63.3215 134.897 101.4 85.3775 143.549C51.0891 116.481 20.7307 89.1337 10.6268 60.3217C7.127 50.334 6.97585 39.3697 10.8942 29.5448C23.3352 -1.63916 66.2276 -4.88313 84.2148 33.091Z" fill="#F7E5E5"/>
<path d="M84.2028 32.5098C84.5749 31.2076 84.6446 30.1379 84.9353 29.2193C86.2957 25.8707 88.342 21.9059 90.4117 18.9526C107.852 -5.98755 145.036 -6.72006 162.163 19.2665C192.812 64.0542 123.119 124.515 92.1674 151.525L85.6329 157.129C59.4952 136.282 32.3691 114.795 13.6495 86.0992C7.69639 76.7277 2.68511 66.5075 0.766637 55.485C-2.39594 38.0908 4.2664 19.0224 18.7654 8.54634C38.0315 -5.67361 64.3669 -0.0693491 77.7381 19.1503C79.0636 20.9641 80.6565 23.8011 81.7378 25.801C82.9354 28.138 83.5982 29.8007 84.1912 32.5098H84.2028ZM84.2261 33.6725C82.9122 31.8238 81.3193 28.8589 80.0868 26.859C78.8776 25.0801 77.087 22.5221 75.6801 20.9176C62.6229 5.18611 39.6012 0.872448 23.2302 14.0808C11.6845 23.3593 6.71972 39.3233 9.81253 53.6712C11.5799 62.0311 15.6028 70.0072 20.1025 77.2626C37.0665 103.482 61.9485 123.236 86.0864 142.63L84.6097 142.653C99.8413 129.666 114.759 116.248 128.316 101.563C145.117 82.7971 170.429 52.9154 157.058 26.6265C152.361 16.6388 143.013 8.96492 132.176 6.66275C117.631 3.23275 101.923 9.31373 92.4697 20.6967C91.086 22.3012 89.2838 24.8941 88.1328 26.7079C86.9235 28.7659 85.4701 31.7541 84.2028 33.6725H84.2261Z" fill="#B40000"/>
<path d="M82.0402 34.2186C82.9937 35.6837 85.1679 35.6371 85.9935 34.0907C105.225 -2.16259 150.815 1.73249 160.953 38.8927C167.93 67.9605 134.897 106.039 85.3772 148.188C51.0656 121.108 20.6956 93.7378 10.6033 64.9142C7.12678 54.9847 6.964 44.1017 10.8358 34.3233C22.835 3.99978 59.1348 -0.976625 82.0402 34.207V34.2186Z" fill="#F7E5E5"/>
<g opacity="0.8">
<g opacity="0.8">
<path opacity="0.8" d="M135.582 5.1854C145.57 7.39455 154.244 13.2895 160.278 21.068C163.313 24.9747 165.685 29.3 167.464 33.9741L168.103 35.7763C168.313 36.3809 168.545 36.9623 168.685 37.6599C168.987 38.997 169.359 40.3807 169.51 41.6945C169.603 42.3573 169.696 43.0316 169.789 43.6944C169.859 44.3688 169.882 45.0315 169.929 45.7059C170.033 47.0662 170.01 48.4034 169.952 49.7521C169.952 50.5311 169.871 51.3101 169.754 52.0775C169.65 52.8566 169.522 53.6356 169.394 54.4146C169.01 55.9261 168.696 57.4958 168.173 58.9492C166.58 63.4721 164.755 65.658 163.045 68.9368C161.267 72.5413 159.22 75.9364 157.069 79.2152C154.93 82.5173 152.616 85.6566 150.244 88.7378C145.465 94.8769 140.373 100.725 135.071 106.365C124.478 117.666 113.223 128.363 101.84 138.886C99.5963 140.92 97.3523 142.955 95.085 144.943C93.7363 146.118 92.3875 147.304 91.0388 148.478C89.3645 149.92 87.6902 151.35 86.0275 152.78L85.7136 153.047L85.5624 153.187L85.481 153.257C85.481 153.257 85.4345 153.222 85.3996 153.21L84.795 152.722L83.5742 151.745L81.1325 149.803C79.5396 148.524 77.9467 147.257 76.3537 145.99C74.0516 144.094 71.761 142.211 69.4705 140.327C60.3781 132.723 51.5531 124.863 43.1584 116.492C34.752 108.132 26.8106 99.179 19.846 89.2145C16.4393 84.18 13.1488 78.9827 10.5676 73.297C9.84668 71.9134 9.27696 70.46 8.6956 68.995C8.11424 67.53 7.48638 66.1115 6.99804 64.5418C5.98648 61.4722 5.25398 58.2748 4.84703 55.0192C3.88198 47.636 4.66099 40.0435 7.1957 33.0323C9.73041 26.184 13.6487 19.6728 19.2414 14.5336C24.7759 9.39441 32.0312 5.77838 39.7981 4.73194C47.565 3.63899 55.6226 5.06913 62.6803 8.3596C71.4704 12.6151 78.0048 18.8124 83.1789 26.556C84.2369 28.1954 85.1787 30.4744 85.5973 31.8812C85.9229 33.2649 85.702 33.8927 84.2602 32.4626C81.3418 29.5209 77.5048 25.7886 73.5865 22.6028C69.1333 18.9752 64.3429 16.1846 59.4131 14.4522C56.9481 13.5685 54.4483 13.0221 51.9717 12.6616C49.4835 12.3593 47.0186 12.3361 44.6234 12.557C39.8214 13.0802 35.3101 14.6731 31.4382 17.2892C29.4849 18.5682 27.6943 20.0914 26.0898 21.8354C24.4852 23.5795 22.9969 25.4631 21.7645 27.5908C20.4855 29.7884 19.3693 32.0208 18.4159 34.3229C17.4857 36.6832 16.7067 38.8924 16.1718 41.1946C15.0789 45.7756 14.7998 50.5428 15.2882 55.2982C15.5323 57.6702 15.9858 60.0537 16.6369 62.3908C16.9857 63.5767 17.4392 64.8208 17.8345 66.0417L18.4624 67.8788L19.2298 69.6926C21.1482 74.576 23.8573 79.285 26.892 83.9242C33.1009 92.8654 40.1818 100.307 47.5767 107.237C55.0064 114.166 62.8198 120.596 71.2146 127.386C73.4005 129.247 75.4817 131.258 77.2723 133.153C79.0745 135.025 80.5511 136.781 81.4813 138.141C81.7255 138.479 81.958 138.793 82.1673 139.083C82.2719 139.292 82.3068 139.444 82.3766 139.618C82.5161 139.99 82.6324 140.304 82.737 140.595C82.9696 141.211 83.1905 141.769 83.5161 142.35C83.8416 142.932 84.2951 143.536 85.0392 144.304C85.1322 144.374 85.2369 144.571 85.3299 144.536C85.4229 144.478 85.5159 144.408 85.6206 144.339C85.8182 144.199 86.0508 144.036 86.2949 143.85C86.7833 143.478 87.3646 143.013 88.0274 142.443C89.1436 141.42 90.2481 140.409 91.3295 139.409C92.5271 138.304 93.6898 137.176 94.8292 136.072C97.1314 133.851 99.3405 131.607 101.561 129.34C106.003 124.817 110.433 120.178 115.386 115.201C123.816 106.853 131.583 98.8069 138.466 90.1331C141.896 85.7962 145.105 81.2965 147.93 76.5177C150.744 71.739 153.151 66.6696 154.79 61.2978C156.046 57.0772 156.744 52.7984 156.744 48.694V47.1593L156.616 45.6477C156.581 44.6362 156.348 43.6711 156.232 42.6945C156.023 41.741 155.837 40.8574 155.569 39.9156C155.22 38.9622 154.93 38.0087 154.569 37.0553C151.628 29.3582 146.837 22.9749 140.733 18.3357C138.256 16.4869 135.757 15.0452 133.257 13.8709C130.757 12.6733 128.222 11.8477 125.653 11.2315C120.502 10.0106 115.06 9.81299 109.096 11.2664C104.922 12.3593 100.527 14.6382 96.5733 17.8124C92.5968 20.975 89.0738 24.9864 86.1438 29.2535C85.5508 30.1023 84.9927 30.8464 84.3416 31.5789C84.1788 31.765 84.016 31.951 83.8532 32.137L83.6091 32.4161L83.4812 32.5556L83.423 32.6254L83.3882 32.6603V32.6719C83.2835 32.6138 84.3299 33.1719 83.8881 32.9393C84.0974 33.0672 84.0625 33.1021 84.0276 33.0091C84.0509 33.0556 84.0742 33.0788 84.016 33.0207L83.9463 32.9742L83.8997 32.9509L82.8766 32.4045L82.8998 32.3347L83.1091 31.7882C83.3998 31.0441 83.7021 30.2883 84.016 29.5209C84.3183 28.7419 84.7136 27.9745 85.109 27.2071C85.5159 26.4281 85.9112 25.6259 86.3763 24.8468C88.225 21.7075 90.6202 18.5566 93.527 15.6731C99.3057 9.88275 107.445 5.54584 115.642 4.19709C117.897 3.80177 118.921 4.17384 120.537 4.19709C125.792 4.05757 130.629 4.05757 135.582 5.15052V5.1854Z" fill="#C33232"/>
<path opacity="0.8" d="M131.677 5.32555C136.607 5.98829 141.351 7.47656 145.665 9.74385C149.967 12.0228 153.85 15.0342 157.141 18.6037C160.431 22.1732 163.129 26.2776 165.187 30.7192C166.221 32.9283 167.094 35.2537 167.826 37.7768C168.117 39.0907 168.489 40.4627 168.628 41.7649C168.721 42.4277 168.803 43.0904 168.896 43.7532C168.965 44.4159 168.977 45.0786 169.024 45.753C169.21 48.8226 168.698 51.9968 167.989 55.0198C166.71 59.6125 164.989 61.8914 163.454 65.24C161.85 68.9026 159.966 72.3675 157.92 75.6928C156.931 77.3787 155.815 78.9833 154.757 80.6111C153.629 82.1924 152.548 83.8085 151.374 85.3549C146.769 91.5987 141.758 97.4704 136.549 103.179C126.143 114.597 114.958 125.329 103.668 135.91C101.447 137.968 99.2028 139.991 96.9704 141.991C94.6217 144.06 92.8544 145.642 89.4593 148.56L87.1804 150.525L86.0409 151.502L85.4712 151.99C85.2852 151.862 85.0991 151.699 84.9131 151.56C83.4132 150.374 81.9249 149.176 80.4367 147.99C79.0414 146.874 77.6578 145.758 76.2625 144.642L72.8558 141.851C63.8099 134.386 55.0314 126.782 46.6599 118.655C38.3116 110.516 30.2657 101.947 23.115 92.3777C19.5571 87.5757 16.255 82.5179 13.3134 77.1346C12.6041 75.7742 11.953 74.379 11.267 72.9953C10.5461 71.635 9.97637 70.1816 9.39502 68.7398C8.17417 65.9028 7.10448 62.8449 6.39522 59.7055C4.79068 52.5781 4.67441 45.1019 6.41848 37.9861C6.83705 36.2072 7.38353 34.4515 8.03464 32.7539L9.0462 30.2424L10.2089 27.7891C11.8483 24.5452 13.8366 21.464 16.2318 18.6502C20.9872 13.0227 27.4635 8.55788 34.8584 6.465C42.2416 4.32562 50.3457 4.67443 57.6708 7.11612C66.8097 10.3601 73.879 15.976 79.5414 23.3127C80.6576 24.8823 82.7039 27.8589 83.8783 30.1611C85.0991 32.4632 85.5875 33.905 84.1457 32.4865C81.2389 29.5564 77.3904 25.8241 73.472 22.6499C69.0188 19.0339 64.2401 16.255 59.3218 14.5458C56.8685 13.6622 54.3571 13.139 51.9037 12.7785C49.4272 12.4762 46.9622 12.4646 44.5787 12.6855C39.7999 13.2204 35.3002 14.8133 31.4516 17.441C27.5682 19.999 24.3475 23.5685 21.8244 27.7426C20.557 29.9285 19.4525 32.1725 18.499 34.4631C17.5805 36.8234 16.8015 39.0209 16.2783 41.3231C15.1969 45.8925 14.9295 50.648 15.4295 55.3919C15.6853 57.7638 16.1271 60.1357 16.7899 62.4728C17.1503 63.6704 17.5921 64.8912 17.9991 66.1121C18.2084 66.7167 18.3944 67.3446 18.6269 67.9492L19.3943 69.7514C21.3128 74.6231 24.0219 79.3321 27.0682 83.9597C33.2771 92.8893 40.3464 100.331 47.7529 107.249C55.1826 114.167 62.9844 120.597 71.3908 127.387C73.5767 129.247 75.6579 131.27 77.4485 133.154C79.2507 135.026 80.7273 136.782 81.6575 138.142C81.9017 138.468 82.1575 138.805 82.3203 139.072C82.39 139.258 82.4481 139.433 82.5063 139.595C82.6458 139.967 82.7505 140.281 82.8551 140.56C83.076 141.177 83.2853 141.712 83.5992 142.281C83.9132 142.851 84.3434 143.444 85.0759 144.2C85.1689 144.281 85.2619 144.421 85.3665 144.467C85.4596 144.409 85.5526 144.351 85.6456 144.281C85.8433 144.142 86.0642 143.99 86.2967 143.804C86.7734 143.444 87.3432 142.991 87.9943 142.421C89.0989 141.398 90.1918 140.398 91.2731 139.409C92.4707 138.305 93.6334 137.177 94.7729 136.072C97.0751 133.852 99.2842 131.608 101.505 129.352C105.947 124.829 110.365 120.19 115.33 115.213C123.759 106.865 131.526 98.8308 138.409 90.1569C141.839 85.82 145.049 81.3203 147.874 76.5532C150.688 71.7861 153.094 66.7167 154.734 61.3566C155.99 57.136 156.699 52.8688 156.699 48.7761V47.2529L156.571 45.753C156.536 44.7415 156.315 43.7764 156.187 42.7997C155.99 41.8463 155.792 40.9743 155.536 40.0325C155.199 39.079 154.873 38.1256 154.536 37.1838C151.606 29.4983 146.839 23.1383 140.758 18.4874C135.805 14.8365 130.863 12.5925 125.724 11.3716C120.585 10.1392 115.167 9.92988 109.214 11.3716C105.051 12.453 100.656 14.7319 96.703 17.8828C92.7265 21.0338 89.2035 25.0335 86.2851 29.289C85.6805 30.1262 85.134 30.8703 84.4829 31.6028C84.1573 31.9749 83.8434 32.347 83.5062 32.7306V32.7539H83.483L83.9015 32.9748H83.9132L83.948 32.9981L84.0178 33.0446L84.0759 33.0911C84.0992 33.1143 84.0759 33.0911 84.0643 33.0562C84.0876 33.1143 84.1108 33.1143 84.0411 33.0562L83.9597 32.9981L83.9132 32.9748L83.0179 32.4981L83.0295 32.4516L83.0528 32.3818L83.262 31.847C83.5527 31.1377 83.8434 30.4169 84.1341 29.696C84.7154 28.2426 85.541 26.859 86.32 25.4172C88.0524 22.6383 90.0639 19.8362 92.6219 17.3364C97.6215 12.2553 104.435 8.11605 112.26 6.08131C113.341 5.83714 114.132 5.72087 114.853 5.70924C115.585 5.70924 116.237 5.74412 117.027 5.70924C122.12 5.09301 126.817 4.67443 131.712 5.30229L131.677 5.32555Z" fill="#DA8282"/>
<path opacity="0.8" d="M125.515 6.60431C134.991 6.37177 144.2 9.5576 151.443 15.4293C155.071 18.3593 158.21 21.9288 160.722 25.9634C161.396 26.9518 161.931 28.0098 162.489 29.0679C163.082 30.1143 163.547 31.2189 164.024 32.3235C164.256 32.8816 164.512 33.4281 164.733 33.9978L165.338 35.7535C165.535 36.3465 165.733 36.9278 165.931 37.5208C166.093 38.1487 166.221 38.7998 166.372 39.4509C166.745 40.9508 166.803 42.4391 166.907 43.9738C166.907 44.7412 166.884 45.497 166.861 46.2644C166.861 47.0318 166.779 47.7875 166.675 48.5433C165.977 53.1709 164.582 55.601 163.349 59.0077C162.094 62.7284 160.501 66.2165 158.733 69.5419C156.931 72.844 154.978 75.9949 152.897 79.018C148.723 85.0524 144.13 90.6451 139.351 96.0633C129.724 106.865 119.329 117.039 108.26 127.747C103.888 131.91 99.5399 135.921 95.1797 139.781C92.9938 141.723 90.8428 143.607 88.622 145.525C87.5174 146.444 86.4129 147.49 85.3199 148.304C84.1921 147.409 83.0643 146.513 81.9364 145.618C72.9719 138.479 64.4609 131.41 56.1475 123.945C47.8574 116.492 39.823 108.702 32.3236 100.075C31.3934 98.9933 30.4516 97.912 29.5098 96.8191C28.6145 95.6912 27.7076 94.5634 26.8007 93.4356L25.4403 91.738L24.1497 89.9707C23.2893 88.7964 22.4173 87.6104 21.5569 86.4244C18.2664 81.541 15.1154 76.4251 12.511 70.8673C11.1622 67.6699 9.70883 64.5073 8.81354 61.1355C7.90662 57.7868 7.29039 54.3568 7.12761 50.9036C6.72066 43.9971 8.01127 36.9511 10.8599 30.6143C13.6388 24.2659 17.8943 18.3942 23.6265 14.0457C29.3121 9.68549 36.5209 7.02289 43.9623 6.86011C48.6015 6.73221 54.2872 7.66238 59.4961 9.80176C64.7051 11.9528 69.414 15.1735 72.6115 18.4523C73.8905 19.8708 77.2275 23.2078 79.4133 26.196C80.5063 27.6843 81.39 29.0098 81.8318 29.7888C82.2387 30.5794 82.2038 30.812 81.4713 30.1027C78.4483 27.3354 74.4718 23.8241 70.4256 20.9522C68.1002 19.3476 65.7864 17.8594 63.3447 16.7315C62.1587 16.1037 60.903 15.6735 59.7054 15.1619C58.4613 14.7665 57.2637 14.3015 56.008 14.034C53.5547 13.3713 51.0781 13.069 48.6596 12.9876C46.2412 12.8829 43.8576 13.1387 41.5904 13.6271C32.4282 15.5921 25.138 21.8358 20.929 30.5096C19.8477 32.7537 18.9524 35.0791 18.1617 37.3696C17.4409 39.602 16.9176 41.8577 16.5804 44.1366C15.9061 48.6828 15.9526 53.3569 16.7897 57.9613C17.1967 60.275 17.8129 62.4958 18.685 64.9492C19.3942 67.3792 20.5104 69.7163 21.4871 72.1231C22.0452 73.309 22.6614 74.4717 23.2544 75.6577L24.1497 77.425L25.1729 79.1575C25.8705 80.3086 26.5681 81.4713 27.2658 82.634C28.0448 83.7618 28.8238 84.8896 29.6144 86.0291C35.9512 94.8192 43.2065 102.075 50.6711 108.911C58.1706 115.725 66.0305 122.085 74.4602 128.817C76.6345 130.689 78.739 132.689 80.5412 134.549C81.4365 135.479 82.262 136.386 82.9712 137.235L83.227 137.549C83.227 137.549 83.3317 137.665 83.3433 137.688L83.3666 137.758C83.3898 137.851 83.4247 137.944 83.4479 138.037C83.5061 138.246 83.5642 138.432 83.6107 138.607C84.1921 140.107 84.506 141.2 84.9595 142.142C85.0176 142.258 85.0874 142.386 85.1571 142.514C85.192 142.56 85.2385 142.665 85.2734 142.676C85.3083 142.676 85.3432 142.676 85.3781 142.676C85.5292 142.665 85.7269 142.595 85.9827 142.455C86.2385 142.316 86.5408 142.118 86.9245 141.839C87.1105 141.688 87.3198 141.525 87.5523 141.351C87.6686 141.258 87.7849 141.165 87.9128 141.06C88.0988 140.909 88.2848 140.746 88.4825 140.572C98.4818 131.619 106.191 122.922 116.039 112.981C124.422 104.632 132.061 96.54 138.805 87.8662C142.165 83.5293 145.281 79.018 147.978 74.2508C150.664 69.4953 152.978 64.4492 154.338 59.1588C155.385 55.008 155.931 50.8455 155.699 46.9271C155.594 45.9621 155.594 44.9738 155.396 44.032L155.176 42.6135L154.85 41.2996C154.71 40.4508 154.269 39.4858 153.978 38.5672C153.699 37.6371 153.245 36.7185 152.873 35.8C151.281 32.1491 149.269 28.8353 146.897 25.9169C144.49 23.0218 141.723 20.5336 138.665 18.464C136.189 16.8013 133.712 15.5339 131.235 14.5107C128.747 13.5224 126.271 12.8364 123.748 12.3248C121.213 11.8598 118.655 11.6854 115.969 11.7435C113.318 11.9063 110.539 12.2667 107.679 13.1504C103.667 14.3828 99.4817 16.8013 95.7727 20.0801C92.0404 23.3357 88.7615 27.4052 86.0408 31.684C85.7734 32.1142 85.4827 32.5095 85.192 32.8816L84.7502 33.4281C84.6688 33.4862 84.5874 33.5211 84.506 33.5443C84.1921 33.6025 83.8898 33.3467 83.9014 33.1257C83.9595 33.0792 83.9944 33.0211 84.0061 32.963C84.0061 32.87 84.0061 33.0095 84.0409 33.0327C84.0642 33.0792 84.0874 33.0909 84.0293 33.0327L83.9712 32.9862L83.9247 32.963H83.9014L83.634 32.8118V32.7769L83.8549 32.277C84.4363 30.9747 84.9711 29.6376 85.7036 28.4051C86.4361 27.1727 87.1221 25.9169 88.029 24.7659C88.4709 24.1845 88.9011 23.6031 89.3429 23.0102C89.808 22.4404 90.3196 21.894 90.8195 21.3359C94.8541 16.9059 100.168 12.9178 107.284 9.96454C109.249 9.15065 110.272 9.29017 111.737 8.99949C116.469 7.76702 120.829 6.69733 125.515 6.58105V6.60431Z" fill="#E6A9A9"/>
<path opacity="0.8" d="M125.096 10.0345C128.479 9.92987 131.339 10.1159 134.025 10.5577C135.386 10.7089 136.653 11.0693 137.99 11.3367C139.269 11.7321 140.618 12.0576 141.943 12.6274C144.641 13.6622 147.513 15.1388 150.547 17.627C153.559 20.1036 156.849 23.5801 159.605 28.7193C160.198 29.9285 160.837 31.161 161.233 32.5097C161.442 33.1725 161.663 33.8468 161.884 34.5212C162.081 35.1956 162.221 35.9048 162.395 36.5908C162.616 37.6605 162.779 38.614 162.767 39.5557C162.767 40.4859 162.826 41.3347 162.721 42.1486C162.651 42.9625 162.581 43.7415 162.512 44.5438C162.395 45.3344 162.302 46.1483 162.244 47.0087C161.674 54.4966 159.047 61.3566 155.768 67.6585C152.419 73.9604 148.396 79.7856 144.001 85.3782C135.234 96.5867 125.224 106.981 114.515 117.899C106.039 126.387 98.0277 133.619 90.3189 140.281C89.4934 140.991 88.6795 141.688 87.8772 142.374C87.2494 142.909 86.6215 143.432 85.9936 143.956L85.5285 144.351C85.4472 144.397 85.3774 144.525 85.296 144.502L85.0402 144.293L84.017 143.456C83.3427 142.898 82.6567 142.351 81.9823 141.805C80.2615 140.386 78.5523 138.979 76.8547 137.572C74.9944 136.049 73.1689 134.491 71.3435 132.933C64.0416 126.713 56.8561 120.353 49.5194 113.283C42.2176 106.191 34.6483 98.4471 27.3232 88.9826C23.1607 83.6225 19.7307 78.2043 16.8472 72.7395C16.1728 71.3559 15.4054 70.0072 14.8241 68.6119C14.2427 67.205 13.6497 65.8098 13.0684 64.4261C11.9871 61.6589 11.2313 58.8102 10.7313 55.9151C9.71978 50.1248 9.89419 44.1252 11.429 38.2651C12.208 35.3467 13.3707 32.4516 14.7892 29.6262C16.2426 26.8241 18.0332 24.1033 20.2074 21.6035C21.5911 20.0687 23.5328 17.9758 26.1256 16.0225C28.6952 14.0575 31.9043 12.1855 35.4273 11.0228C38.9387 9.83685 42.7059 9.31363 46.0661 9.4299C49.4264 9.54617 52.4029 10.1624 54.426 10.9996C54.6353 11.0926 54.9376 11.1972 55.3213 11.3135C55.6934 11.453 56.1468 11.6274 56.6701 11.8135C57.7165 12.1506 58.9722 12.6971 60.4024 13.2901C63.2045 14.5458 66.4601 16.3945 69.3087 18.4525C75.0293 22.5569 78.9476 27.3124 77.3779 25.9985C74.1456 23.5568 72.4132 22.4058 68.3088 19.6734C58.9141 13.5575 48.9845 11.7669 40.5433 13.9412C32.102 16.1039 25.2071 21.8709 20.9632 30.5447C19.8819 32.7888 18.9866 35.1258 18.1843 37.4512C17.4634 39.7069 16.9286 41.9974 16.5914 44.3229C15.9054 48.9737 16.0333 53.7641 16.9518 58.4963C17.1728 59.6823 17.4634 60.8566 17.789 62.0193C18.1378 63.2053 18.6145 64.461 19.0098 65.6819C19.2191 66.2981 19.4052 66.9143 19.6493 67.5306L20.4167 69.356C20.9516 70.5653 21.3934 71.8094 21.998 72.9953L23.8118 76.5881C24.3932 77.7973 25.1606 78.9368 25.835 80.1227C27.1721 82.4947 28.7882 84.7387 30.3579 87.006C36.8226 95.7263 44.0895 102.958 51.589 109.76C59.1234 116.55 66.9949 122.887 75.4478 129.608C77.6221 131.48 79.7499 133.468 81.5521 135.34C81.9939 135.817 82.4241 136.27 82.8427 136.724C83.0403 136.944 83.238 137.177 83.4357 137.386C83.4706 137.433 83.5519 137.514 83.5636 137.537L83.5868 137.607L83.6333 137.735C83.7845 138.177 83.9124 138.572 84.0286 138.898C84.3426 139.665 84.6914 140.247 84.9704 140.63C85.0402 140.723 85.11 140.816 85.1797 140.898C85.2495 140.967 85.3193 141.084 85.3658 141.014C85.4588 140.956 85.5518 140.874 85.6448 140.77C85.8425 140.56 86.0401 140.281 86.3192 139.944C86.4703 139.77 86.5982 139.607 86.8308 139.375C87.5284 138.735 88.3423 138.014 89.3074 137.165C99.2253 128.189 107.027 122.097 116.864 112.121C125.212 103.749 132.828 95.645 139.502 86.9246C142.827 82.5644 145.897 78.0415 148.547 73.2627C151.21 68.4956 153.349 63.4146 154.652 58.1475C155.652 53.9966 155.989 49.8574 155.663 45.9855C155.617 45.0089 155.431 44.0671 155.28 43.1253C155.128 42.1835 154.861 41.358 154.663 40.4627L153.675 37.6838L152.501 34.9282C149.14 27.7426 144.059 22.0569 137.839 18.0921C135.316 16.5224 132.793 15.3481 130.293 14.4296C129.049 13.9296 127.793 13.6157 126.537 13.232C125.282 12.9645 124.026 12.6274 122.759 12.4762C121.491 12.232 120.212 12.1972 118.91 12.0693C117.631 12.0693 116.294 11.9879 114.98 12.139C112.306 12.2785 109.585 12.8483 106.748 13.7668C102.795 15.1156 98.6904 17.6503 95.0511 20.9872C91.4002 24.3242 88.2144 28.4519 85.5867 32.7888C84.9588 33.8468 84.703 33.905 84.2844 33.8236C83.8891 33.7306 83.738 33.3469 83.8194 33.126C84.0054 33.1492 84.0635 32.9981 84.0752 32.9399C84.0519 32.9167 84.1333 33.1492 84.1217 33.1027C84.1217 33.1027 84.0868 33.0678 84.0519 33.0446C84.017 33.0213 83.9938 32.9981 83.9705 32.9864H83.9473C83.3892 32.6841 83.7961 32.8934 83.6682 32.8237V32.8004V32.7771L83.7263 32.6609C83.8659 32.3702 84.0054 32.0679 84.1449 31.7772C84.424 31.1959 84.7146 30.6261 85.0053 30.0797C86.2145 27.8821 87.6447 25.9171 89.3306 24.0336C92.7141 20.2896 96.9812 16.7317 103.527 13.0459C104.446 12.5808 105.446 12.3948 106.364 12.2669C107.283 12.139 108.167 12.1623 108.853 11.9762C107.504 12.4646 106.748 12.7553 106.469 12.918C106.178 13.0576 106.329 12.9994 106.806 12.7901C107.783 12.4064 110.097 11.546 112.806 10.8717C115.538 10.2554 118.643 9.88336 121.049 9.8601C122.259 9.8601 123.282 9.91824 124.003 9.92987C124.724 9.99963 125.154 10.0461 125.154 10.0461L125.096 10.0345Z" fill="#F2D3D3"/>
</g>
</g>
<path d="M93.7709 56.3289C93.7709 55.7027 93.5221 55.1021 93.0793 54.6593C92.6365 54.2165 92.036 53.9678 91.4098 53.9678H77.2431C76.6169 53.9678 76.0163 54.2165 75.5736 54.6593C75.1308 55.1021 74.882 55.7027 74.882 56.3289V68.1344H63.0764C62.4502 68.1344 61.8497 68.3832 61.4069 68.826C60.9641 69.2688 60.7153 69.8693 60.7153 70.4956V84.6622C60.7153 85.2884 60.9641 85.889 61.4069 86.3318C61.8497 86.7746 62.4502 87.0233 63.0764 87.0233H74.882V98.8289C74.882 99.4551 75.1308 100.056 75.5736 100.498C76.0163 100.941 76.6169 101.19 77.2431 101.19H91.4098C92.036 101.19 92.6365 100.941 93.0793 100.498C93.5221 100.056 93.7709 99.4551 93.7709 98.8289V87.0233H105.576C106.203 87.0233 106.803 86.7746 107.246 86.3318C107.689 85.889 107.938 85.2884 107.938 84.6622V70.4956C107.938 69.8693 107.689 69.2688 107.246 68.826C106.803 68.3832 106.203 68.1344 105.576 68.1344H93.7709V56.3289Z" fill="#F6F9FE" stroke="#B40000" stroke-width="4.72222" stroke-linecap="round" stroke-linejoin="round"/>
</g>
<defs>
<clipPath id="clip0_5259_91">
<rect width="170" height="157.117" fill="white"/>
</clipPath>
</defs>
</svg>
