<?xml version="1.0" encoding="UTF-8"?>
<svg id="Layer_1" data-name="Layer 1" xmlns="http://www.w3.org/2000/svg" viewBox="0 0 224.66 368.27">
  <defs>
    <style>
      .cls-1 {
        fill: #67cfff;
      }
    </style>
  </defs>
  <path class="cls-1" d="M209.46,273.79c-11.3-11.77-27.47-18.26-46.77-18.79h-5.76s-.21-213.71-.21-213.71c-.13-15.44-6.56-24.9-11.93-30.12-6.86-6.67-16.31-10.45-25.92-10.36-9.36.08-18.02,3.68-24.37,10.12-4.89,4.96-10.69,13.97-10.56,28.7v75.68c-.04,5.63-5.4,5.72-6,5.73-4.15-.04-4.12-3.09-4.11-4.32V40.81C73.82-12.53,0-15.81,0,44.21c0,.25,0,113.15,0,113.4h15.81c0-.25,0-113.15.01-113.4.29-9.43,4.11-20.27,10.81-24.05,6.55-3.69,14.91-3.63,21.31.15,6.59,3.9,10.17,10.99,10.07,20.5v75.83c-.14,13.13,9.83,20.11,19.75,20.21,14.1.16,21.88-10.9,21.99-21.46V39.56c-.08-7.42,2-13.48,6-17.53,3.4-3.45,8.11-5.37,13.25-5.41.06,0,.12,0,.18,0,10.4,0,21.58,7.73,21.72,24.76,0,.85.18,81.2.2,116.31-16.91.85-31.33,6.24-41.99,15.75-11.02,9.83-17.25,23.35-17.54,38.08-.3,14.99,5.85,29.72,16.87,40.44,10.75,10.45,25.39,16.75,42.67,18.43v97.81h3.35v.07h15.23c.8.02,1.59.03,2.37.03,18.23,0,33.83-5.59,45.25-16.24,10.77-10.05,16.92-23.78,17.33-38.68.41-14.9-4.98-28.95-15.18-39.57ZM141.11,254.48c-30.49-3.52-44.1-23.89-43.73-42.66.21-10.28,4.56-19.72,12.26-26.59,7.77-6.93,18.56-10.93,31.47-11.72v80.97ZM203.06,332.49c-8.23,13.4-23.51,20.48-43.05,19.95h-3.09v-81.63h5.44c19.47.56,34.31,8.47,41.78,22.27,6.69,12.35,6.27,27.45-1.08,39.42Z"/>
</svg>