<?xml version="1.0" encoding="UTF-8"?>
<svg id="Layer_1" xmlns="http://www.w3.org/2000/svg" version="1.1" viewBox="0 0 224.7 368.3">
  <!-- Generator: Adobe Illustrator 29.2.1, SVG Export Plug-In . SVG Version: 2.1.0 Build 116)  -->
  <defs>
    <style>
      .st0 {
        fill: #c7edff;
      }
    </style>
  </defs>
  <path class="st0" d="M209.5,273.8c-11.3-11.8-27.5-18.3-46.8-18.8h-5.8l-.2-213.7c-.1-15.4-6.6-24.9-11.9-30.1-6.9-6.7-16.3-10.4-25.9-10.4s-18,3.7-24.4,10.1c-4.9,5-10.7,14-10.6,28.7v75.7c0,5.6-5.4,5.7-6,5.7-4.2,0-4.1-3.1-4.1-4.3V40.8C73.8-12.5,0-15.8,0,44.2v113.4h15.8V44.2c.3-9.4,4.1-20.3,10.8-24,6.5-3.7,14.9-3.6,21.3.1,6.6,3.9,10.2,11,10.1,20.5v75.8c0,13.1,9.8,20.1,19.8,20.2,14.1.2,21.9-10.9,22-21.5V39.6c0-7.4,2-13.5,6-17.5,3.4-3.5,8.1-5.4,13.2-5.4h.2c10.4,0,21.6,7.7,21.7,24.8,0,.8.2,81.2.2,116.3-16.9.9-31.3,6.2-42,15.8-11,9.8-17.2,23.4-17.5,38.1-.3,15,5.8,29.7,16.9,40.4,10.8,10.4,25.4,16.8,42.7,18.4v97.8h21c18.2,0,33.8-5.6,45.2-16.2,10.8-10,16.9-23.8,17.3-38.7s-5-29-15.2-39.6h0ZM141.1,254.5c-30.5-3.5-44.1-23.9-43.7-42.7.2-10.3,4.6-19.7,12.3-26.6,7.8-6.9,18.6-10.9,31.5-11.7v81h-.1ZM203.1,332.5c-8.2,13.4-23.5,20.5-43.1,20h-3.1v-81.6h5.4c19.5.6,34.3,8.5,41.8,22.3,6.7,12.4,6.3,27.5-1.1,39.4h.1Z"/>
</svg>