<svg width="91" height="52" viewBox="0 0 91 52" fill="none" xmlns="http://www.w3.org/2000/svg">
<path d="M74.4812 2.09059L76.578 0.366791C75.4923 0.317066 74.3818 0.325354 73.2464 0.399942L71.8789 1.99114C72.7657 1.97456 73.6359 2.00771 74.4895 2.09059H74.4812Z" fill="white"/>
<path d="M85.0072 7.65267C85.3636 8.25765 85.5128 8.81292 85.5791 9.19414L90.0213 9.16099C90.0213 8.58086 89.9135 7.47034 89.2588 6.30181C88.8693 5.61394 88.4052 5.12498 88.0488 4.81006L83.7227 6.2438C84.0542 6.48413 84.5846 6.93994 85.0072 7.66096V7.65267Z" fill="white"/>
<path d="M57.5511 6.16578L57.145 5.41162C56.6146 5.81771 56.1008 6.23208 55.6035 6.65474L56.0511 7.06083C56.54 6.74591 57.0456 6.44756 57.5428 6.15749L57.5511 6.16578Z" fill="white"/>
<path d="M54.8553 7.8658L54.5403 7.60889C54.0762 8.03155 53.6287 8.47078 53.1895 8.91002L53.3469 8.97632C53.8359 8.5951 54.3414 8.22216 54.847 7.8658H54.8553Z" fill="white"/>
<path d="M63.3751 3.54653L63.6155 2.41943C62.9442 2.65148 62.2729 2.9084 61.6016 3.1736L61.6844 4.16809C62.248 3.94433 62.8116 3.72886 63.3834 3.53824L63.3751 3.54653Z" fill="white"/>
<path d="M67.3553 1.31982C66.5845 1.50215 65.8138 1.71762 65.0347 1.95796L64.7529 3.11821C65.3994 2.9276 66.0458 2.77013 66.684 2.62925L67.3553 1.32811V1.31982Z" fill="white"/>
<path d="M78.7655 3.04377L81.9645 1.24539C80.7628 0.889023 79.4948 0.640399 78.1854 0.499512L75.9229 2.2979C76.9091 2.47193 77.8622 2.72056 78.7655 3.05206V3.04377Z" fill="white"/>
<path d="M71.6477 0.54834C70.7278 0.656077 69.7996 0.805252 68.8714 0.987577L68.1338 2.34673C68.8963 2.22241 69.6504 2.12296 70.3963 2.06495L71.656 0.54834H71.6477Z" fill="white"/>
<path d="M81.4763 4.36836C81.9321 4.65842 82.363 4.97334 82.7526 5.31313L87.1947 3.77166C86.9461 3.58933 86.6892 3.40701 86.4157 3.24126C85.4958 2.65285 84.5095 2.1556 83.457 1.74951L80.0508 3.58933C80.5398 3.82967 81.0204 4.08658 81.468 4.37665L81.4763 4.36836Z" fill="white"/>
<path d="M60.3602 4.73377L60.2441 3.74756C59.6226 4.02105 59.001 4.3194 58.3877 4.62603L58.8104 5.48793C59.3242 5.22273 59.8463 4.97411 60.3602 4.74206V4.73377Z" fill="white"/>
<path d="M28.784 12.5464L23.7036 27.1821L18.8968 12.5464H15.4657L10.2611 27.0826L5.49568 12.5464H0.614258L8.17259 33.7872H12.0263L17.0569 19.6156L21.9384 33.7872H25.7673L33.3588 12.5464H28.784Z" fill="white"/>
<path d="M45.5326 32.0764L44.2977 29.0598C43.6347 29.5239 42.9385 29.8554 42.2009 30.0708C41.4716 30.278 40.676 30.3858 39.839 30.3858C38.4715 30.3858 37.419 30.0211 36.6731 29.3001C36.0515 28.6951 35.6868 27.8084 35.5874 26.6481H45.7066V25.5956C45.7066 24.0707 45.4414 22.7281 44.9193 21.5762C44.3972 20.4242 43.6347 19.5209 42.6485 18.8827C41.654 18.2363 40.3942 17.9214 38.8693 17.9214C37.3444 17.9214 36.0101 18.2612 34.8747 18.9325C33.7392 19.6037 32.8525 20.5319 32.2226 21.7171C31.5927 22.9022 31.2695 24.2779 31.2695 25.8442C31.2695 28.3139 32.0154 30.2615 33.4989 31.6703C34.9824 33.0875 37.0543 33.7919 39.7064 33.7919C42.3584 33.7919 44.795 32.6151 45.5243 32.0681L45.5326 32.0764ZM36.4162 22.1314C36.988 21.3524 37.8168 20.9546 38.9025 20.9546C39.9881 20.9546 40.6097 21.2778 41.1318 21.9325C41.5959 22.5127 41.8529 23.3414 41.9026 24.4188H35.6123C35.72 23.474 35.9852 22.7033 36.4079 22.1314H36.4162Z" fill="white"/>
<path d="M83.1585 32.0764L81.9237 29.0598C81.2607 29.5239 80.5645 29.8554 79.8269 30.0708C79.0976 30.278 78.302 30.3858 77.4649 30.3858C76.0975 30.3858 75.0449 30.0211 74.299 29.3001C73.6775 28.6951 73.3128 27.8084 73.2134 26.6481H83.3326V25.5956C83.3326 24.0707 83.0674 22.7281 82.5453 21.5762C82.0231 20.4242 81.2607 19.5209 80.2744 18.8827C79.2799 18.2363 78.0202 17.9214 76.4953 17.9214C74.9703 17.9214 73.636 18.2612 72.5006 18.9325C71.3652 19.6037 70.4784 20.5319 69.8486 21.7171C69.2187 22.9022 68.8955 24.2779 68.8955 25.8442C68.8955 28.3139 69.6414 30.2615 71.1249 31.6703C72.6084 33.0875 74.6803 33.7919 77.3323 33.7919C79.9844 33.7919 82.4209 32.6151 83.1503 32.0681L83.1585 32.0764ZM74.0421 22.1314C74.614 21.3524 75.4427 20.9546 76.5284 20.9546C77.6141 20.9546 78.2357 21.2778 78.7578 21.9325C79.2219 22.5127 79.4788 23.3414 79.5286 24.4188H73.2382C73.346 23.474 73.6112 22.7033 74.0338 22.1314H74.0421Z" fill="white"/>
<path d="M52.4855 11.6206H47.9355V33.7979H52.4855V11.6206Z" fill="white"/>
<path d="M65.5303 33.7872V16.3752H72.2847V12.5464H54.085V16.3752H60.8063V33.7872H65.5303Z" fill="white"/>
<path d="M90.1202 11.6206H85.5703V33.7979H90.1202V11.6206Z" fill="white"/>
<path d="M49.8279 44.4694H42.3461V38.8394H40.6445V51.7175H42.3461V45.9123H49.8279V51.7175H51.5461V38.8394H49.8279V44.4694Z" fill="white"/>
<path d="M59.1594 42.7428C58.5755 42.3842 57.8666 42.2007 57.0241 42.2007C56.1817 42.2007 55.381 42.4009 54.722 42.7929C54.0631 43.1849 53.5543 43.7437 53.179 44.4527C52.8036 45.1616 52.6201 46.0041 52.6201 46.9799C52.6201 48.4562 53.0455 49.6073 53.8879 50.4497C54.7304 51.2921 55.8898 51.7091 57.3494 51.7091C58.8091 51.7091 60.4022 50.9001 60.8193 50.5247L60.2688 49.3737C59.8267 49.7407 59.3763 49.9993 58.9008 50.1577C58.4254 50.3162 57.9166 50.3913 57.3661 50.3913C56.3819 50.3913 55.6062 50.1077 55.0557 49.5322C54.5302 48.9817 54.2466 48.1893 54.2299 47.1384H60.9444V46.5879C60.9444 45.6871 60.7942 44.9114 60.4856 44.2525C60.1853 43.5936 59.7349 43.0848 59.1511 42.7261V42.7428H59.1594ZM54.2633 46.1625C54.3467 45.4202 54.5802 44.803 54.9556 44.3276C55.4394 43.7104 56.1316 43.4017 57.0158 43.4017C57.8999 43.4017 58.4504 43.6603 58.8675 44.1858C59.2512 44.6612 59.4597 45.3201 59.493 46.1542H54.2549H54.2633V46.1625Z" fill="white"/>
<path d="M69.0444 44.0101C68.8192 43.5263 68.4856 43.126 68.0185 42.8174C67.418 42.4087 66.709 42.2085 65.8916 42.2085C65.0742 42.2085 64.3819 42.4003 63.773 42.7757C63.1641 43.151 62.6887 43.7015 62.3467 44.4105C62.0047 45.1194 61.8379 45.9702 61.8379 46.9544C61.8379 47.9386 62.0047 48.7893 62.3467 49.5066C62.6887 50.2239 63.1641 50.7744 63.773 51.1498C64.3819 51.5251 65.0909 51.7169 65.8916 51.7169C66.6923 51.7169 67.4013 51.5168 68.0018 51.1081C68.4439 50.8078 68.7775 50.4325 68.9944 49.9821V51.5585H70.6543V44.5439C70.6543 44.1936 70.6709 43.8349 70.696 43.468C70.7293 43.101 70.7627 42.734 70.796 42.3753H69.1863L69.0278 44.0184H69.0444V44.0101ZM68.2687 49.5233C67.7683 50.1072 67.1094 50.3991 66.2753 50.3991C65.4412 50.3991 64.7656 50.1072 64.2651 49.5233C63.7646 48.9395 63.5144 48.0804 63.5144 46.946C63.5144 45.8117 63.7646 44.9609 64.2734 44.3938C64.7822 43.8183 65.4412 43.5347 66.2753 43.5347C67.1094 43.5347 67.7683 43.8183 68.2687 44.3938C68.7692 44.9693 69.0194 45.82 69.0194 46.946C69.0194 48.072 68.7692 48.9395 68.2687 49.5233Z" fill="white"/>
<path d="M74.2389 38.2808H72.579V51.7177H74.2389V38.2808Z" fill="white"/>
<path d="M78.5264 39.4468L76.8665 39.9055V42.3744H75.0732V43.6505H76.8665V48.5215C76.8665 49.5891 77.1168 50.3898 77.6089 50.9236C78.101 51.4491 78.8267 51.716 79.7942 51.716C80.7618 51.716 80.2446 51.691 80.4782 51.6493C80.7117 51.6076 80.9286 51.5492 81.1121 51.4741V50.1062C80.9703 50.1646 80.8035 50.2147 80.6283 50.2647C80.4531 50.3064 80.2446 50.3314 79.9944 50.3314C79.519 50.3314 79.1603 50.1813 78.9101 49.881C78.6598 49.5808 78.5347 49.0803 78.5347 48.3714V43.6422H81.1288V42.366H78.5347V39.4468H78.5264Z" fill="white"/>
<path d="M89.296 43.2602C88.7706 42.668 87.9448 42.3677 86.8438 42.3677C85.7428 42.3677 85.3758 42.5512 84.7836 42.9182C84.3415 43.1935 83.9829 43.5605 83.7243 44.0192V38.2808H82.0645V51.7177H83.7243V46.463C83.7243 45.6373 83.9745 44.97 84.4666 44.4696C84.9588 43.9691 85.6093 43.7189 86.4101 43.7189C87.2108 43.7189 87.6445 43.9024 87.9615 44.2778C88.2784 44.6531 88.4369 45.2453 88.4369 46.0543V51.7177H90.0968V45.9626C90.0968 44.7615 89.8299 43.8607 89.3044 43.2602H89.296Z" fill="white"/>
</svg>
